<?xml version="1.0" standalone="no"?><!DOCTYPE svg PUBLIC "-//W3C//DTD SVG 1.1//EN" "http://www.w3.org/Graphics/SVG/1.1/DTD/svg11.dtd"><svg class="icon" width="200px" height="175.04px" viewBox="0 0 1170 1024" version="1.1" xmlns="http://www.w3.org/2000/svg"><path fill="#ff9900" d="M146.285714 0h877.714286a146.285714 146.285714 0 0 1 146.285714 146.285714v585.142857a146.285714 146.285714 0 0 1-146.285714 146.285715H146.285714a146.285714 146.285714 0 0 1-146.285714-146.285715V146.285714a146.285714 146.285714 0 0 1 146.285714-146.285714z m54.857143 73.142857C130.486857 73.142857 73.142857 127.707429 73.142857 195.072v487.570286C73.142857 749.933714 130.486857 804.571429 201.142857 804.571429h768c70.656 0 128-54.564571 128-121.929143V195.072C1097.142857 127.780571 1039.798857 73.142857 969.142857 73.142857H201.142857z m54.857143 877.714286h658.285714a36.571429 36.571429 0 1 1 0 73.142857h-658.285714a36.571429 36.571429 0 1 1 0-73.142857z m0-731.428572h219.428571a36.571429 36.571429 0 1 1 0 73.142858h-219.428571a36.571429 36.571429 0 0 1 0-73.142858z m0 146.285715h658.285714a36.571429 36.571429 0 1 1 0 73.142857h-658.285714a36.571429 36.571429 0 1 1 0-73.142857z m0 146.285714h658.285714a36.571429 36.571429 0 1 1 0 73.142857h-658.285714a36.571429 36.571429 0 1 1 0-73.142857z" /></svg>