<?xml version="1.0" standalone="no"?><!DOCTYPE svg PUBLIC "-//W3C//DTD SVG 1.1//EN" "http://www.w3.org/Graphics/SVG/1.1/DTD/svg11.dtd"><svg class="icon" width="200px" height="200.00px" viewBox="0 0 1024 1024" version="1.1" xmlns="http://www.w3.org/2000/svg"><path fill="#ff9900" d="M97.28 834.56v-107.52h558.08v107.52H97.28z m0-261.12V460.8h558.08v112.64H97.28z m855.04 204.8c0 46.08-25.6 66.56-51.2 66.56-30.72 0-51.2-20.48-51.2-66.56s25.6-66.56 51.2-66.56c30.72 5.12 51.2 25.6 51.2 66.56zM97.28 307.2V189.44h558.08v112.64L97.28 307.2z m855.04 209.92c0 46.08-25.6 66.56-51.2 66.56-30.72 0-51.2-20.48-51.2-66.56s25.6-66.56 51.2-66.56c30.72-5.12 51.2 15.36 51.2 66.56z m0-271.36c0 46.08-25.6 66.56-51.2 66.56-30.72 0-51.2-20.48-51.2-66.56s25.6-66.56 51.2-66.56c30.72 0 51.2 20.48 51.2 66.56z m51.2 435.2H51.2v199.68h952.32v-199.68z m0-271.36H51.2v209.92h952.32V409.6z m0-266.24H51.2v209.92h952.32V143.36z m0 0" /></svg>